<?xml version="1.0" encoding="utf-8"?>
<!-- Generator: Adobe Illustrator 24.0.1, SVG Export Plug-In . SVG Version: 6.00 Build 0)  -->
<svg version="1.1" id="레이어_1" xmlns="http://www.w3.org/2000/svg" xmlns:xlink="http://www.w3.org/1999/xlink" x="0px"
	 y="0px" viewBox="0 0 70 70" style="enable-background:new 0 0 70 70;" xml:space="preserve">
<style type="text/css">
	.st0{fill:#CE0E2D;}
	.st1{fill:#EE7623;}
</style>
<title>logo</title>
<path class="st0" d="M23.1,18.1c-2.7,0.5-6.7,2.9-6.7,7.2c0,3.9,3.2,6.3,3.2,11.4c0,3.2-1.6,6.2-4.4,7.9c0.9-0.1,1.9-0.1,3.1-0.1
	c1.3,0,2.6,0.1,3.8,0.2l12-14.7C31.2,25.4,27.4,21.4,23.1,18.1z"/>
<path class="st0" d="M40.7,41.7c1.1,0,2.1,0.1,3.9,0.1c5.1,0,10-1.4,14.4-4C51.5,33.1,43,30.4,34.2,30c-0.7,1.9-6,16.7-6.4,17.9
	c0.8,1,1.5,2,2.2,3.2c1.3,2.2,2.4,4.5,3.3,6.9c1.5-2.4,1.7-6.1,1.8-9.9C35.2,44.4,35.9,41.8,40.7,41.7z"/>
<path class="st1" d="M6.8,44.7c0.1,0.7,0.4,1.1,1,1.1c1.8,0,10.2-1.8,10.2-9.2c0-4.5-3.3-7-3.3-11.5c0-5.1,4.3-7.6,6.6-8.2
	C13.2,11.1,5.4,9.3,4,9.3c-0.5,0-0.9,0.4-0.9,0.9c0,0,0,0.1,0,0.1c0,0.4,0.2,1.5,0.2,2.1C3.8,16.6,6.8,44.1,6.8,44.7z"/>
<path class="st1" d="M66.4,46.2c0.3-0.1,0.5-0.5,0.5-0.8c0-0.2,0-0.3-0.1-0.5c-2-2.3-4.3-4.4-6.8-6.1c-4.7,2.8-10,4.4-15.5,4.5
	c-1.8,0-2.2-0.1-3.4-0.1c-3.6,0-4.5,1.5-4.6,4.7c0,0.6,0,1.4,0,2.2c-0.1,2.8-0.4,6.7-2.6,9.3c0.1,0.3,0.2,0.6,0.4,0.8
	c0.1,0.3,0.4,0.5,0.7,0.5c0.2,0,0.5-0.1,0.7-0.2c0.6-0.2,25.2-11.8,29-13.4C65,46.8,66.1,46.3,66.4,46.2z"/>
</svg>
