<svg width="25" height="24" viewBox="0 0 25 24" fill="none" xmlns="http://www.w3.org/2000/svg">
<path d="M12.0094 5.79532C8.60223 5.79532 5.85402 8.51846 5.85402 11.8945C5.85402 15.2706 8.60223 17.9937 12.0094 17.9937C15.4165 17.9937 18.1647 15.2706 18.1647 11.8945C18.1647 8.51846 15.4165 5.79532 12.0094 5.79532ZM12.0094 15.8598C9.80759 15.8598 8.00759 14.0815 8.00759 11.8945C8.00759 9.70752 9.80223 7.92924 12.0094 7.92924C14.2165 7.92924 16.0112 9.70752 16.0112 11.8945C16.0112 14.0815 14.2112 15.8598 12.0094 15.8598ZM19.8522 5.54583C19.8522 6.33676 19.2094 6.96845 18.4165 6.96845C17.6183 6.96845 16.9808 6.33145 16.9808 5.54583C16.9808 4.7602 17.6237 4.12321 18.4165 4.12321C19.2094 4.12321 19.8522 4.7602 19.8522 5.54583ZM23.929 6.98968C23.8379 5.08401 23.3987 3.39597 21.9897 2.0052C20.5862 0.614433 18.8826 0.179154 16.9594 0.0836054C14.9772 -0.0278685 9.03616 -0.0278685 7.05402 0.0836054C5.13616 0.173846 3.43259 0.609125 2.02366 1.99989C0.614732 3.39066 0.180804 5.0787 0.084375 6.98437C-0.028125 8.94843 -0.028125 14.8353 0.084375 16.7994C0.175446 18.7051 0.614732 20.3931 2.02366 21.7839C3.43259 23.1746 5.1308 23.6099 7.05402 23.7055C9.03616 23.8169 14.9772 23.8169 16.9594 23.7055C18.8826 23.6152 20.5862 23.1799 21.9897 21.7839C23.3933 20.3931 23.8326 18.7051 23.929 16.7994C24.0415 14.8353 24.0415 8.95374 23.929 6.98968ZM21.3683 18.9068C20.9504 19.9472 20.1415 20.7487 19.0862 21.1681C17.5058 21.7892 13.7558 21.6458 12.0094 21.6458C10.2629 21.6458 6.50759 21.7839 4.93259 21.1681C3.88259 20.7541 3.07366 19.9525 2.65045 18.9068C2.02366 17.3408 2.1683 13.625 2.1683 11.8945C2.1683 10.164 2.02902 6.44293 2.65045 4.88229C3.0683 3.84187 3.87723 3.04032 4.93259 2.62096C6.51295 1.99989 10.2629 2.14322 12.0094 2.14322C13.7558 2.14322 17.5112 2.0052 19.0862 2.62096C20.1362 3.03501 20.9451 3.83656 21.3683 4.88229C21.9951 6.44823 21.8504 10.164 21.8504 11.8945C21.8504 13.625 21.9951 17.3461 21.3683 18.9068Z" fill="white"/>
</svg>
