<svg width="128" height="54" viewBox="0 0 128 54" fill="none" xmlns="http://www.w3.org/2000/svg">
<path d="M9.31142 36.3443C7.55133 35.5211 6.10352 34.854 6.10352 33.509C6.10352 32.48 6.92679 31.7348 8.55203 31.7348C9.14818 31.7348 9.63789 31.8022 10.1453 31.898C10.4079 31.9406 10.6918 31.9796 10.926 31.9796C12.3454 31.9796 13.1439 31.1351 13.6797 29.5276L13.8997 28.8711C13.6761 28.7788 11.3554 27.7568 8.33202 27.7568C3.52017 27.7568 0.979402 30.8441 0.979402 34.0449C0.979402 35.6595 1.48685 36.8305 2.27817 37.7531C3.29661 38.9383 4.75152 39.7119 6.11062 40.3791C8.09071 41.3514 9.87919 42.0682 9.87919 43.5124C9.87919 44.7864 8.55912 45.5174 6.79194 45.5174C4.37182 45.5174 2.25688 44.1334 1.98719 43.9631L0 47.6891C0.351307 47.8914 2.91337 49.5166 7.12551 49.5166C11.6144 49.5166 15.014 46.9403 15.014 42.9802C15.014 39.02 11.8628 37.5792 9.31142 36.3443Z" fill="white"/>
<path d="M26.8705 38.1825L35.0144 28.1968H29.2125L22.7151 36.8127H22.6193V28.1968H17.8359V49.3498H18.1197C20.1886 49.3498 22.6512 48.3917 22.6512 44.9389V40.0845H22.7471L29.3651 49.0907H35.4509L26.8634 38.186" fill="white"/>
<path d="M35.2855 5.53575C33.5999 5.85512 31.1017 7.38455 31.1124 10.085C31.1195 12.5406 33.1244 14.0275 33.1315 17.2424C33.1422 19.6661 31.8079 21.2913 30.3672 22.1962C30.9491 22.143 31.5879 22.1111 32.2905 22.1111C33.7631 22.104 34.6503 22.253 34.7071 22.2566L42.2619 12.9842C40.1647 9.84725 37.7127 7.40939 35.2855 5.53575Z" fill="white"/>
<path d="M41.6339 30.5744C42.5849 29.0946 42.7056 26.7348 42.7836 24.3289C42.8723 22.0898 43.3408 20.4007 46.3428 20.3936C47.0029 20.3936 47.6381 20.4823 48.7878 20.4787C53.1809 20.4574 56.0482 18.9457 57.8295 17.9522C54.1852 15.6278 48.8659 13.2574 42.2655 12.9877C41.8362 14.2049 38.4899 23.5092 38.2344 24.2544C38.2734 24.3005 38.8625 24.9535 39.5899 26.2345C40.6687 27.9946 41.2507 29.485 41.6339 30.5744Z" fill="white"/>
<path d="M25.6805 22.9734C25.2972 22.9769 25.1056 22.7214 25.0559 22.2814C25.0098 21.8449 23.1184 4.55991 22.8381 1.94462C22.7955 1.56492 22.7032 0.862308 22.7032 0.613909C22.6997 0.209373 22.9623 8.23467e-06 23.271 8.23467e-06C24.1653 -0.00354032 29.041 1.1391 34.2219 4.76927C32.7279 5.188 30.031 6.73872 30.0417 9.95017C30.0523 12.7926 32.0892 14.361 32.0963 17.2105C32.114 21.8485 26.7805 22.9698 25.6769 22.9734" fill="white"/>
<path d="M42.3281 31.2806C42.4097 31.4935 42.4842 31.6709 42.5587 31.7951C42.6794 31.9938 42.8284 32.0825 43.0165 32.0825C43.1336 32.0825 43.2791 32.0435 43.4388 31.9654C43.8327 31.788 59.3434 24.5631 61.689 23.4879C62.0261 23.3282 62.672 23.0337 62.8813 22.9131C63.1049 22.7889 63.2043 22.6043 63.2043 22.4198C63.2043 22.3169 63.1723 22.2104 63.1155 22.1146C62.821 21.6427 61.3235 20.0494 58.8111 18.3106C56.8168 19.4071 53.7048 21.1033 49.081 21.121C47.9454 21.121 47.69 21.0465 46.9128 21.0501C44.6524 21.0607 44.0882 22.0259 44.0065 24.0096C43.9924 24.3822 43.9853 24.8861 43.964 25.4325C43.893 27.2033 43.6872 29.6482 42.3316 31.2806" fill="white"/>
<path d="M49.9854 40.1094C50.3403 39.6977 50.7696 39.3535 51.27 39.0732C51.7703 38.7928 52.3594 38.6544 53.0301 38.6544C53.8214 38.6544 54.4779 38.8248 55.0066 39.169C55.5353 39.5132 55.9363 39.9142 56.2131 40.372C56.4864 40.8297 56.6886 41.3478 56.8199 41.9191C56.9512 42.494 57.0151 43.1327 57.0151 43.8389C57.0151 44.5983 56.9228 45.308 56.7418 45.9574C56.5609 46.6103 56.2912 47.1745 55.9328 47.6536C55.5744 48.1362 55.1344 48.5123 54.6056 48.782C54.0769 49.0553 53.4665 49.1901 52.771 49.1901C52.2032 49.1901 51.6958 49.1085 51.2522 48.9488C50.8087 48.7891 50.4006 48.5372 50.0244 48.193C50.0386 48.5691 50.0457 48.9098 50.0493 49.2114C50.0493 49.513 50.0528 49.8182 50.0528 50.1269V52.8345H47.4375V38.878H49.9818V40.1023L49.9854 40.1094ZM50.0564 46.3761C50.6667 46.9723 51.3835 47.2739 52.2068 47.2739C52.8775 47.2739 53.4027 46.99 53.7824 46.4222C54.1585 45.8545 54.3466 44.9957 54.3466 43.8424C54.3466 42.6892 54.1727 41.9227 53.8214 41.3833C53.4701 40.8404 52.9697 40.5707 52.3168 40.5707C51.8981 40.5707 51.5006 40.6984 51.1245 40.9468C50.7448 41.1988 50.3899 41.5607 50.0528 42.0327V46.3761H50.0564Z" fill="white"/>
<path d="M61.5528 37.196H58.9375V34.971H61.5528V37.196ZM61.5528 48.9595H58.9375V38.8851H61.5528V48.9595Z" fill="white"/>
<path d="M68.5305 49.1936C67.7427 49.1936 67.0365 49.0765 66.4155 48.8423C65.7945 48.6081 65.2658 48.2675 64.8329 47.8133C64.4035 47.3626 64.0699 46.809 63.8357 46.1561C63.6015 45.5031 63.4844 44.7615 63.4844 43.924C63.4844 43.0866 63.6015 42.3414 63.8357 41.6849C64.0699 41.032 64.4035 40.4784 64.8329 40.0277C65.2658 39.5771 65.791 39.2364 66.4155 39.0022C67.0365 38.768 67.7427 38.6509 68.5305 38.6509C69.1266 38.6509 69.6766 38.7254 70.1805 38.878C70.6844 39.027 71.1245 39.2541 71.5006 39.5522C71.8803 39.8503 72.1855 40.2158 72.4161 40.6523C72.6503 41.0887 72.7958 41.5891 72.8597 42.1604H70.4289C70.3615 41.6743 70.1593 41.2839 69.8221 40.9965C69.485 40.709 69.0521 40.5636 68.5269 40.5636C68.1685 40.5636 67.8456 40.631 67.5546 40.7658C67.2636 40.9007 67.0117 41.1029 66.8023 41.3762C66.5929 41.6494 66.4297 41.9972 66.3162 42.423C66.2026 42.8453 66.1458 43.3456 66.1458 43.9205C66.1458 44.4954 66.2026 44.9851 66.3162 45.4038C66.4297 45.8225 66.5894 46.1703 66.8023 46.4435C67.0117 46.7203 67.2601 46.9226 67.5546 47.061C67.8456 47.1994 68.1721 47.2668 68.5269 47.2668C68.7789 47.2668 69.0166 47.2277 69.2437 47.1568C69.4673 47.0858 69.6624 46.9793 69.8292 46.8374C69.996 46.699 70.1344 46.5287 70.2338 46.3335C70.3367 46.1383 70.4006 45.9183 70.4289 45.6699H72.8597C72.7816 46.2271 72.629 46.7203 72.3948 47.1568C72.1606 47.5932 71.8555 47.9623 71.4829 48.2639C71.1103 48.5656 70.6702 48.7962 70.1699 48.9523C69.6695 49.112 69.1195 49.1866 68.5234 49.1866L68.5305 49.1936Z" fill="white"/>
<path d="M83.4397 48.2817C83.4397 49.9069 83.0423 51.1063 82.2439 51.8835C81.449 52.6606 80.2425 53.0474 78.6314 53.0474C77.8969 53.0474 77.2581 52.9693 76.7081 52.8203C76.1581 52.6677 75.7039 52.4548 75.3455 52.1709C74.9871 51.8906 74.7138 51.557 74.5328 51.1738C74.3519 50.7905 74.2596 50.3611 74.2596 49.8892H76.7684C76.811 50.3824 76.9778 50.7515 77.2688 50.9963C77.5598 51.2412 78.0353 51.3618 78.6953 51.3618C79.1495 51.3618 79.515 51.2909 79.8025 51.1454C80.0863 50.9999 80.3064 50.7976 80.466 50.5386C80.6257 50.2795 80.7322 49.9601 80.7925 49.5876C80.8493 49.2114 80.8777 48.7927 80.8777 48.3349V47.6749C80.0331 48.6365 79.0573 49.1156 77.943 49.1156C77.2901 49.1156 76.7152 49.002 76.2149 48.7714C75.7145 48.5407 75.2887 48.2072 74.9445 47.7707C74.5967 47.3342 74.3341 46.8019 74.1567 46.1632C73.9793 45.528 73.8906 44.8076 73.8906 43.9986C73.8906 43.2463 73.9828 42.5401 74.1709 41.8907C74.3554 41.2378 74.6251 40.6771 74.98 40.1981C75.3313 39.7226 75.7713 39.3464 76.3 39.0696C76.8288 38.7964 77.4391 38.658 78.1311 38.658C78.6882 38.658 79.1921 38.7361 79.6463 38.8957C80.097 39.0519 80.5228 39.3038 80.9132 39.6445V38.8851H83.4468V48.2817H83.4397ZM80.8351 41.4968C80.2176 40.8794 79.5044 40.5707 78.6953 40.5707C78.0353 40.5707 77.5136 40.8474 77.1304 41.401C76.7436 41.9546 76.5555 42.8204 76.5555 43.9986C76.5555 45.0418 76.7259 45.8367 77.063 46.3761C77.4036 46.919 77.9075 47.1887 78.5711 47.1887C78.9898 47.1887 79.3873 47.0645 79.7599 46.8126C80.1325 46.5642 80.4944 46.2022 80.8351 45.7267V41.4968Z" fill="white"/>
<path d="M88.5606 48.9595H85.9453V35.0349H88.5606V48.9595Z" fill="white"/>
<path d="M95.5382 38.6544C96.2976 38.6544 96.9896 38.768 97.607 38.9951C98.2245 39.2222 98.7497 39.5593 99.1862 40.0029C99.6226 40.45 99.9597 41 100.194 41.6565C100.432 42.313 100.549 43.0689 100.549 43.9276C100.549 44.7864 100.432 45.5316 100.194 46.188C99.9562 46.841 99.6191 47.391 99.1862 47.8381C98.7497 48.2852 98.2245 48.6223 97.607 48.853C96.9896 49.0837 96.2976 49.1972 95.5382 49.1972C94.7789 49.1972 94.0762 49.0837 93.4517 48.853C92.8307 48.6223 92.302 48.2852 91.8655 47.8381C91.4326 47.391 91.0919 46.841 90.8541 46.188C90.6128 45.5316 90.4922 44.7793 90.4922 43.9276C90.4922 43.076 90.6128 42.313 90.8541 41.6565C91.0954 41.0036 91.4326 40.45 91.8655 40.0029C92.302 39.5593 92.8307 39.2222 93.4517 38.9951C94.0727 38.768 94.7682 38.6544 95.5382 38.6544ZM95.5382 47.2704C95.886 47.2704 96.2089 47.1994 96.4999 47.0645C96.7909 46.9261 97.0393 46.7203 97.2451 46.4471C97.4509 46.1738 97.607 45.8261 97.7206 45.4074C97.8271 44.9886 97.8838 44.4954 97.8838 43.9241C97.8838 43.3527 97.8271 42.8595 97.7206 42.4372C97.6106 42.0149 97.4509 41.6672 97.2451 41.3904C97.0393 41.1171 96.7909 40.9113 96.4999 40.7729C96.2089 40.6345 95.886 40.5671 95.5382 40.5671C95.1905 40.5671 94.8463 40.6381 94.5553 40.7729C94.2643 40.9113 94.0159 41.1171 93.8101 41.3904C93.6043 41.6672 93.4446 42.0149 93.331 42.4372C93.2175 42.8595 93.1607 43.3563 93.1607 43.9241C93.1607 44.4918 93.2175 44.9886 93.331 45.4074C93.4446 45.8261 93.6043 46.1738 93.8101 46.4471C94.0159 46.7239 94.2643 46.9261 94.5553 47.0645C94.8463 47.2029 95.1763 47.2704 95.5382 47.2704Z" fill="white"/>
<path d="M105.093 38.0796C105.093 38.4025 105.086 38.7361 105.078 39.0838C105.068 39.4316 105.064 39.7652 105.064 40.0881C105.458 39.6339 105.902 39.2826 106.409 39.0342C106.913 38.7822 107.452 38.658 108.031 38.658C108.684 38.658 109.259 38.7787 109.766 39.02C110.27 39.2613 110.692 39.6019 111.026 40.049C111.359 40.4962 111.618 41.0391 111.792 41.6743C111.966 42.313 112.055 43.0369 112.055 43.846C112.055 44.6551 111.959 45.379 111.768 46.039C111.576 46.699 111.296 47.2597 110.934 47.7246C110.572 48.193 110.125 48.5549 109.596 48.8104C109.067 49.0695 108.474 49.1972 107.814 49.1972C107.243 49.1972 106.736 49.1121 106.281 48.9453C105.827 48.7785 105.408 48.523 105.025 48.1788V48.963H102.484V35.0385H105.1V38.0867L105.093 38.0796ZM105.093 46.3726C105.703 46.9687 106.42 47.2704 107.243 47.2704C107.914 47.2704 108.439 46.9865 108.819 46.4187C109.195 45.8509 109.383 44.9922 109.383 43.8389C109.383 42.6856 109.209 41.9191 108.858 41.3798C108.51 40.8368 108.01 40.5671 107.357 40.5671C106.938 40.5671 106.54 40.6949 106.161 40.9433C105.785 41.1952 105.426 41.5572 105.089 42.0291V46.3726H105.093Z" fill="white"/>
<path d="M120.333 48.0333C119.889 48.4272 119.382 48.7182 118.821 48.9098C118.257 49.1014 117.622 49.1972 116.908 49.1972C116.415 49.1972 115.954 49.1333 115.528 49.0091C115.102 48.8814 114.733 48.6969 114.421 48.4485C114.108 48.2001 113.86 47.8949 113.679 47.5258C113.498 47.1568 113.406 46.7345 113.406 46.2555C113.406 43.9241 115.418 42.7566 119.438 42.7566H120.315C120.315 42.2278 120.297 41.841 120.262 41.5926C120.226 41.4294 120.18 41.2768 120.12 41.142C120.056 41.0036 119.967 40.8829 119.85 40.7836C119.726 40.6061 119.531 40.4784 119.265 40.3968C118.998 40.3187 118.675 40.2761 118.296 40.2761C117.618 40.2761 117.103 40.4003 116.756 40.6523C116.411 40.9007 116.213 41.2733 116.167 41.7665H113.821C113.959 39.6942 115.482 38.658 118.392 38.658C119.098 38.658 119.722 38.7148 120.262 38.8212C120.801 38.9312 121.284 39.1299 121.717 39.4103C122.121 39.6693 122.423 40.0384 122.621 40.5103C122.82 40.9823 122.92 41.6281 122.92 42.4443V48.9595H120.336V48.0333H120.333ZM120.315 44.3179H119.304C118.221 44.3179 117.409 44.4563 116.876 44.7331C116.34 45.0099 116.071 45.4641 116.071 46.0993C116.071 46.5713 116.234 46.9226 116.557 47.1532C116.88 47.3839 117.309 47.4975 117.845 47.4975C118.09 47.4975 118.335 47.4691 118.576 47.4087C118.817 47.352 119.041 47.2739 119.254 47.171C119.467 47.0716 119.665 46.9474 119.846 46.8019C120.027 46.6529 120.187 46.4897 120.315 46.3158V44.3179Z" fill="white"/>
<path d="M127.998 48.9595H125.383V35.0349H127.998V48.9595Z" fill="white"/>
</svg>
