<?xml version="1.0" encoding="utf-8"?>
<!-- Generator: Adobe Illustrator 24.2.0, SVG Export Plug-In . SVG Version: 6.00 Build 0)  -->
<svg version="1.1" id="Layer_1" xmlns="http://www.w3.org/2000/svg" xmlns:xlink="http://www.w3.org/1999/xlink" x="0px" y="0px"
	 viewBox="0 0 128 54" enable-background="new 0 0 128 54" xml:space="preserve">
<g>
	<path fill="#FFFFFF" d="M9.37,36.37c-1.76-0.82-3.21-1.49-3.21-2.84c0-1.03,0.82-1.77,2.45-1.77c0.6,0,1.09,0.07,1.59,0.16
		c0.26,0.04,0.55,0.08,0.78,0.08c1.42,0,2.22-0.84,2.75-2.45l0.22-0.66c-0.22-0.09-2.54-1.11-5.57-1.11c-4.81,0-7.35,3.09-7.35,6.29
		c0,1.61,0.51,2.79,1.3,3.71c1.02,1.19,2.47,1.96,3.83,2.63c1.98,0.97,3.77,1.69,3.77,3.13c0,1.27-1.32,2-3.09,2
		c-2.42,0-4.54-1.38-4.8-1.55l-1.99,3.73c0.35,0.2,2.91,1.83,7.13,1.83c4.49,0,7.89-2.58,7.89-6.54
		C15.07,39.04,11.92,37.6,9.37,36.37z"/>
	<path fill="#FFFFFF" d="M26.93,38.21l8.14-9.99h-5.8l-6.5,8.62h-0.1v-8.62H17.9v21.15h0.28c2.07,0,4.53-0.96,4.53-4.41v-4.85h0.1
		l6.62,9.01h6.09L26.93,38.21"/>
	<path fill="#FFFFFF" d="M35.35,5.56c-1.69,0.32-4.18,1.85-4.17,4.55c0.01,2.46,2.01,3.94,2.02,7.16c0.01,2.42-1.32,4.05-2.76,4.95
		c0.58-0.05,1.22-0.09,1.92-0.09c1.47-0.01,2.36,0.14,2.42,0.15l7.55-9.27C40.23,9.87,37.77,7.43,35.35,5.56z"/>
	<path fill="#FFFFFF" d="M41.69,30.6c0.95-1.48,1.07-3.84,1.15-6.25c0.09-2.24,0.56-3.93,3.56-3.94c0.66,0,1.3,0.09,2.44,0.09
		c4.39-0.02,7.26-1.53,9.04-2.53c-3.64-2.32-8.96-4.69-15.56-4.96c-0.43,1.22-3.78,10.52-4.03,11.27c0.04,0.05,0.63,0.7,1.36,1.98
		C40.73,28.02,41.31,29.51,41.69,30.6z"/>
	<path fill="#FFFFFF" d="M25.74,23c-0.38,0-0.57-0.25-0.62-0.69c-0.05-0.44-1.94-17.72-2.22-20.34c-0.04-0.38-0.13-1.08-0.13-1.33
		c0-0.4,0.26-0.61,0.57-0.61c0.89,0,5.77,1.14,10.95,4.77c-1.49,0.42-4.19,1.97-4.18,5.18c0.01,2.84,2.05,4.41,2.05,7.26
		C32.17,21.87,26.84,22.99,25.74,23"/>
	<path fill="#FFFFFF" d="M42.13,31.43c0.08,0.21,0.16,0.39,0.23,0.51c0.12,0.2,0.27,0.29,0.46,0.29c0.12,0,0.26-0.04,0.42-0.12
		c0.39-0.18,15.9-7.4,18.25-8.48c0.34-0.16,0.98-0.45,1.19-0.57C62.9,22.94,63,22.76,63,22.57c0-0.1-0.03-0.21-0.09-0.31
		c-0.29-0.47-1.79-2.07-4.3-3.8c-1.99,1.1-5.11,2.79-9.73,2.81c-1.14,0-1.39-0.07-2.17-0.07c-2.26,0.01-2.82,0.98-2.91,2.96
		c-0.01,0.37-0.02,0.88-0.04,1.42C43.69,27.36,43.49,29.8,42.13,31.43"/>
	<path fill="#FFFFFF" d="M50.05,40.13c0.35-0.41,0.78-0.76,1.28-1.04c0.5-0.28,1.09-0.42,1.76-0.42c0.79,0,1.45,0.17,1.98,0.51
		c0.53,0.34,0.93,0.75,1.21,1.2c0.27,0.46,0.48,0.98,0.61,1.55c0.13,0.57,0.2,1.21,0.2,1.92c0,0.76-0.09,1.47-0.27,2.12
		c-0.18,0.65-0.45,1.22-0.81,1.7c-0.36,0.48-0.8,0.86-1.33,1.13c-0.53,0.27-1.14,0.41-1.83,0.41c-0.57,0-1.08-0.08-1.52-0.24
		c-0.44-0.16-0.85-0.41-1.23-0.76c0.01,0.38,0.02,0.72,0.02,1.02c0,0.3,0,0.61,0,0.92v2.71H47.5V38.9h2.54L50.05,40.13L50.05,40.13z
		 M50.12,46.4c0.61,0.6,1.33,0.9,2.15,0.9c0.67,0,1.2-0.28,1.58-0.85c0.38-0.57,0.56-1.43,0.56-2.58c0-1.15-0.17-1.92-0.53-2.46
		c-0.35-0.54-0.85-0.81-1.5-0.81c-0.42,0-0.82,0.13-1.19,0.38c-0.38,0.25-0.73,0.61-1.07,1.09L50.12,46.4L50.12,46.4z"/>
	<path fill="#FFFFFF" d="M61.61,37.22H59v-2.22h2.62V37.22z M61.61,48.98H59V38.91h2.62V48.98z"/>
	<path fill="#FFFFFF" d="M68.59,49.22c-0.79,0-1.49-0.12-2.12-0.35c-0.62-0.23-1.15-0.57-1.58-1.03c-0.43-0.45-0.76-1-1-1.66
		c-0.23-0.65-0.35-1.39-0.35-2.23c0-0.84,0.12-1.58,0.35-2.24c0.23-0.65,0.57-1.21,1-1.66c0.43-0.45,0.96-0.79,1.58-1.03
		c0.62-0.23,1.33-0.35,2.12-0.35c0.6,0,1.15,0.07,1.65,0.23c0.5,0.15,0.94,0.38,1.32,0.67c0.38,0.3,0.68,0.66,0.92,1.1
		c0.23,0.44,0.38,0.94,0.44,1.51h-2.43c-0.07-0.49-0.27-0.88-0.61-1.16c-0.34-0.29-0.77-0.43-1.3-0.43c-0.36,0-0.68,0.07-0.97,0.2
		c-0.29,0.13-0.54,0.34-0.75,0.61c-0.21,0.27-0.37,0.62-0.49,1.05c-0.11,0.42-0.17,0.92-0.17,1.5c0,0.57,0.06,1.06,0.17,1.48
		c0.11,0.42,0.27,0.77,0.49,1.04c0.21,0.28,0.46,0.48,0.75,0.62c0.29,0.14,0.62,0.21,0.97,0.21c0.25,0,0.49-0.04,0.72-0.11
		c0.22-0.07,0.42-0.18,0.59-0.32c0.17-0.14,0.31-0.31,0.4-0.5c0.1-0.2,0.17-0.42,0.2-0.66h2.43c-0.08,0.56-0.23,1.05-0.46,1.49
		c-0.23,0.44-0.54,0.81-0.91,1.11c-0.37,0.3-0.81,0.53-1.31,0.69C69.73,49.14,69.18,49.21,68.59,49.22L68.59,49.22z"/>
	<path fill="#FFFFFF" d="M83.5,48.31c0,1.63-0.4,2.82-1.2,3.6c-0.79,0.78-2,1.16-3.61,1.16c-0.73,0-1.37-0.08-1.92-0.23
		c-0.55-0.15-1-0.37-1.36-0.65c-0.36-0.28-0.63-0.61-0.81-1c-0.18-0.38-0.27-0.81-0.27-1.28h2.51c0.04,0.49,0.21,0.86,0.5,1.11
		c0.29,0.24,0.77,0.37,1.43,0.37c0.45,0,0.82-0.07,1.11-0.22c0.28-0.15,0.5-0.35,0.66-0.61c0.16-0.26,0.27-0.58,0.33-0.95
		c0.06-0.38,0.09-0.79,0.09-1.25V47.7c-0.84,0.96-1.82,1.44-2.93,1.44c-0.65,0-1.23-0.11-1.73-0.34c-0.5-0.23-0.93-0.56-1.27-1
		c-0.35-0.44-0.61-0.97-0.79-1.61c-0.18-0.64-0.27-1.36-0.27-2.16c0-0.75,0.09-1.46,0.28-2.11c0.18-0.65,0.45-1.21,0.81-1.69
		c0.35-0.48,0.79-0.85,1.32-1.13c0.53-0.27,1.14-0.41,1.83-0.41c0.56,0,1.06,0.08,1.52,0.24c0.45,0.16,0.88,0.41,1.27,0.75v-0.76
		h2.53L83.5,48.31L83.5,48.31z M80.9,41.52c-0.62-0.62-1.33-0.93-2.14-0.93c-0.66,0-1.18,0.28-1.56,0.83
		c-0.39,0.55-0.57,1.42-0.57,2.6c0,1.04,0.17,1.84,0.51,2.38c0.34,0.54,0.84,0.81,1.51,0.81c0.42,0,0.82-0.12,1.19-0.38
		c0.37-0.25,0.73-0.61,1.08-1.09V41.52z"/>
	<path fill="#FFFFFF" d="M88.62,48.98h-2.62V35.06h2.62V48.98z"/>
	<path fill="#FFFFFF" d="M95.6,38.68c0.76,0,1.45,0.11,2.07,0.34c0.62,0.23,1.14,0.56,1.58,1.01c0.44,0.45,0.77,1,1.01,1.65
		c0.24,0.66,0.36,1.41,0.36,2.27c0,0.86-0.12,1.6-0.36,2.26c-0.24,0.65-0.57,1.2-1.01,1.65c-0.44,0.45-0.96,0.78-1.58,1.01
		c-0.62,0.23-1.31,0.34-2.07,0.34c-0.76,0-1.46-0.11-2.09-0.34c-0.62-0.23-1.15-0.57-1.59-1.01c-0.43-0.45-0.77-1-1.01-1.65
		c-0.24-0.66-0.36-1.41-0.36-2.26c0-0.85,0.12-1.61,0.36-2.27c0.24-0.65,0.58-1.21,1.01-1.65c0.44-0.44,0.97-0.78,1.59-1.01
		C94.13,38.79,94.83,38.68,95.6,38.68z M95.6,47.29c0.35,0,0.67-0.07,0.96-0.21c0.29-0.14,0.54-0.34,0.75-0.62
		c0.21-0.27,0.36-0.62,0.48-1.04c0.11-0.42,0.16-0.91,0.16-1.48c0-0.57-0.06-1.06-0.16-1.49c-0.11-0.42-0.27-0.77-0.48-1.05
		c-0.21-0.27-0.45-0.48-0.75-0.62s-0.61-0.21-0.96-0.21c-0.35,0-0.69,0.07-0.98,0.21c-0.29,0.14-0.54,0.34-0.75,0.62
		c-0.21,0.28-0.37,0.62-0.48,1.05c-0.11,0.42-0.17,0.92-0.17,1.49c0,0.57,0.06,1.06,0.17,1.48c0.11,0.42,0.27,0.77,0.48,1.04
		c0.21,0.28,0.45,0.48,0.75,0.62C94.91,47.23,95.24,47.29,95.6,47.29z"/>
	<path fill="#FFFFFF" d="M105.15,38.1c0,0.32-0.01,0.66-0.01,1c-0.01,0.35-0.01,0.68-0.01,1c0.39-0.45,0.84-0.81,1.34-1.05
		c0.5-0.25,1.04-0.38,1.62-0.38c0.65,0,1.23,0.12,1.74,0.36c0.5,0.24,0.93,0.58,1.26,1.03c0.33,0.45,0.59,0.99,0.77,1.63
		c0.17,0.64,0.26,1.36,0.26,2.17s-0.1,1.53-0.29,2.19c-0.19,0.66-0.47,1.22-0.83,1.69c-0.36,0.47-0.81,0.83-1.34,1.09
		c-0.53,0.26-1.12,0.39-1.78,0.39c-0.57,0-1.08-0.09-1.53-0.25c-0.45-0.17-0.87-0.42-1.26-0.77v0.78h-2.54V35.06h2.62L105.15,38.1
		L105.15,38.1z M105.15,46.4c0.61,0.6,1.33,0.9,2.15,0.9c0.67,0,1.2-0.28,1.58-0.85c0.38-0.57,0.56-1.43,0.56-2.58
		c0-1.15-0.17-1.92-0.53-2.46c-0.35-0.54-0.85-0.81-1.5-0.81c-0.42,0-0.82,0.13-1.2,0.38c-0.38,0.25-0.74,0.61-1.07,1.09
		L105.15,46.4L105.15,46.4z"/>
	<path fill="#FFFFFF" d="M120.39,48.06c-0.44,0.39-0.95,0.68-1.51,0.88c-0.56,0.19-1.2,0.29-1.91,0.29c-0.49,0-0.95-0.06-1.38-0.19
		c-0.43-0.13-0.79-0.31-1.11-0.56c-0.31-0.25-0.56-0.55-0.74-0.92c-0.18-0.37-0.27-0.79-0.27-1.27c0-2.33,2.01-3.5,6.03-3.5h0.88
		c0-0.53-0.02-0.92-0.05-1.16c-0.04-0.16-0.08-0.32-0.14-0.45c-0.06-0.14-0.15-0.26-0.27-0.36c-0.12-0.18-0.32-0.31-0.58-0.39
		c-0.27-0.08-0.59-0.12-0.97-0.12c-0.68,0-1.19,0.12-1.54,0.38c-0.34,0.25-0.54,0.62-0.59,1.11h-2.35c0.14-2.07,1.66-3.11,4.57-3.11
		c0.71,0,1.33,0.06,1.87,0.16c0.54,0.11,1.02,0.31,1.46,0.59c0.4,0.26,0.71,0.63,0.9,1.1c0.2,0.47,0.3,1.12,0.3,1.93v6.52h-2.58
		L120.39,48.06L120.39,48.06z M120.38,44.34h-1.01c-1.08,0-1.9,0.14-2.43,0.42c-0.54,0.28-0.81,0.73-0.81,1.37
		c0,0.47,0.16,0.82,0.49,1.05c0.32,0.23,0.75,0.34,1.29,0.34c0.24,0,0.49-0.03,0.73-0.09c0.24-0.06,0.47-0.13,0.68-0.24
		c0.21-0.1,0.41-0.22,0.59-0.37c0.18-0.15,0.34-0.31,0.47-0.49V44.34z"/>
	<path fill="#FFFFFF" d="M128.06,48.98h-2.61V35.06h2.61V48.98z"/>
</g>
</svg>
